<svg width="18" height="18" viewBox="0 0 18 18" fill="none" xmlns="http://www.w3.org/2000/svg">
<path d="M15.6753 1.50178H2.32531C2.1065 1.50178 1.89667 1.58871 1.74195 1.74342C1.58723 1.89813 1.50031 2.10798 1.50031 2.32678V15.6767C1.50031 15.7851 1.52164 15.8924 1.56311 15.9925C1.60457 16.0926 1.66534 16.1835 1.74195 16.2601C1.81855 16.3368 1.9095 16.3975 2.0096 16.4389C2.10969 16.4804 2.21697 16.5018 2.32531 16.5018H9.51031V10.6893H7.56031V8.43928H9.51031V6.75178C9.4699 6.3556 9.5167 5.95538 9.64738 5.57919C9.77797 5.20299 9.98938 4.85994 10.2667 4.57409C10.544 4.28824 10.8804 4.06651 11.2524 3.92446C11.6245 3.78241 12.0231 3.72347 12.4203 3.75178C13.004 3.74819 13.5875 3.77824 14.1678 3.84178V5.86678H12.9753C12.0303 5.86678 11.8503 6.31678 11.8503 6.96928V8.41678H14.1003L13.8078 10.6668H11.8503V16.5018H15.6753C15.7837 16.5018 15.891 16.4804 15.991 16.4389C16.0911 16.3975 16.1821 16.3368 16.2587 16.2601C16.3353 16.1835 16.396 16.0926 16.4375 15.9925C16.4789 15.8924 16.5003 15.7851 16.5003 15.6767V2.32678C16.5003 2.21844 16.4789 2.11116 16.4375 2.01107C16.396 1.91098 16.3353 1.82002 16.2587 1.74342C16.1821 1.66681 16.0911 1.60604 15.991 1.56459C15.891 1.52312 15.7837 1.50178 15.6753 1.50178Z" fill="#8292B4"/>
</svg>
