<svg width="18" height="18" viewBox="0 0 18 18" fill="none" xmlns="http://www.w3.org/2000/svg">
<g clip-path="url(#clip0_11_381)">
<mask id="mask0_11_381" style="mask-type:luminance" maskUnits="userSpaceOnUse" x="0" y="0" width="18" height="19">
<path d="M18 0.00170898H0V18.0017H18V0.00170898Z" fill="white"/>
</mask>
<g mask="url(#mask0_11_381)">
<path d="M1.12478 1.22668C-0.289717 2.69593 -0.000216674 4.25668 -0.000216674 8.99817C-0.000216674 12.9357 -0.687217 16.8829 2.90828 17.8122C4.03103 18.1009 13.979 18.1009 15.1003 17.8107C16.5973 17.4244 17.8153 16.2102 17.9818 14.0929C18.005 13.7974 18.005 4.20418 17.981 3.90268C17.804 1.64743 16.4158 0.347677 14.5865 0.0844268C14.1673 0.0236768 14.0833 0.00567681 11.9323 0.00192681C4.30253 0.00567681 2.63003 -0.334073 1.12478 1.22668Z" fill="#8292B4"/>
<path d="M8.99836 2.35602C6.27511 2.35602 3.68911 2.11377 2.70136 4.64877C2.29336 5.69577 2.35261 7.05553 2.35261 9.00253C2.35261 10.711 2.29786 12.3168 2.70136 13.3555C3.68686 15.892 6.29386 15.649 8.99686 15.649C11.6046 15.649 14.2934 15.9205 15.2931 13.3555C15.7019 12.298 15.6419 10.9585 15.6419 9.00253C15.6419 6.40603 15.7851 4.72977 14.5259 3.47127C13.2509 2.19627 11.5266 2.35602 8.99536 2.35602H8.99836ZM8.40286 3.55377C14.0834 3.54477 14.8064 2.91328 14.4074 11.686C14.2656 14.7888 11.9031 14.4483 8.99911 14.4483C3.70411 14.4483 3.55186 14.2968 3.55186 8.99953C3.55186 3.64077 3.97186 3.55677 8.40286 3.55227V3.55377ZM12.5459 4.65702C12.1056 4.65702 11.7486 5.01402 11.7486 5.45427C11.7486 5.89452 12.1056 6.25152 12.5459 6.25152C12.9861 6.25152 13.3431 5.89452 13.3431 5.45427C13.3431 5.01402 12.9861 4.65702 12.5459 4.65702ZM8.99836 5.58927C7.11361 5.58927 5.58586 7.11778 5.58586 9.00253C5.58586 10.8873 7.11361 12.415 8.99836 12.415C10.8831 12.415 12.4101 10.8873 12.4101 9.00253C12.4101 7.11778 10.8831 5.58927 8.99836 5.58927ZM8.99836 6.78702C11.9271 6.78702 11.9309 11.218 8.99836 11.218C6.07036 11.218 6.06586 6.78702 8.99836 6.78702Z" fill="white"/>
</g>
</g>
<defs>
<clipPath id="clip0_11_381">
<rect width="18" height="18" fill="white" transform="translate(0 0.00170898)"/>
</clipPath>
</defs>
</svg>
